<?xml version="1.0" standalone="no"?>
<!DOCTYPE svg PUBLIC "-//W3C//DTD SVG 20010904//EN"
 "http://www.w3.org/TR/2001/REC-SVG-20010904/DTD/svg10.dtd">
<svg version="1.0" xmlns="http://www.w3.org/2000/svg"
 width="214.000000pt" height="214.000000pt" viewBox="0 0 214.000000 214.000000"
 preserveAspectRatio="xMidYMid meet">
<metadata>
Created by potrace 1.11, written by Peter Selinger 2001-2013
</metadata>
<g transform="translate(0.000000,214.000000) scale(0.100000,-0.100000)"
fill="#000000" stroke="none">
<path d="M1008 2105 c-2 -1 -30 -5 -63 -9 -222 -22 -445 -130 -617 -300 -204
-202 -312 -473 -302 -761 3 -101 5 -120 26 -210 81 -360 388 -671 753 -764 80
-20 102 -23 224 -28 185 -8 346 25 501 101 63 32 150 83 160 95 3 3 21 18 40
32 157 117 301 342 356 556 21 81 26 123 27 238 1 143 -8 209 -45 325 -102
319 -372 583 -694 679 -66 20 -83 24 -163 37 -34 6 -198 13 -203 9z m275 -214
c328 -89 562 -336 632 -669 17 -85 13 -265 -9 -355 -9 -38 -27 -93 -41 -123
-14 -30 -25 -57 -25 -60 0 -25 -181 -254 -201 -254 -4 0 2 30 12 66 27 99 20
289 -15 407 -26 87 -60 163 -90 202 -15 19 -15 18 -16 -17 0 -27 -8 -44 -31
-67 -17 -17 -34 -31 -39 -31 -5 0 -9 24 -9 54 0 29 -6 69 -14 88 -16 39 -70
104 -99 119 -17 9 -19 8 -14 -8 11 -35 -12 -95 -50 -134 -21 -22 -41 -39 -44
-39 -4 0 -12 19 -19 43 -35 120 -138 224 -272 273 -58 21 -111 34 -107 26 2
-4 17 -34 35 -67 65 -127 81 -266 47 -415 l-6 -25 -15 30 c-35 67 -105 135
-139 135 -5 0 -10 -24 -11 -53 -4 -116 -47 -183 -169 -264 -97 -63 -140 -111
-157 -170 -6 -24 -14 -43 -18 -43 -11 0 -74 102 -106 170 -66 144 -94 321 -72
463 5 28 11 66 14 84 7 47 51 160 87 223 127 226 374 398 613 426 28 4 52 8
53 9 13 12 228 -6 295 -24z"/>
<path d="M1068 1805 c-30 -17 -35 -34 -16 -53 6 -6 8 -15 3 -19 -4 -5 -10 -2
-12 5 -9 24 -35 42 -62 42 -28 0 -61 -26 -61 -48 0 -6 -9 -16 -20 -22 -27 -15
-43 -47 -36 -76 12 -45 49 -54 238 -54 189 0 216 6 232 53 9 23 6 31 -16 54
-19 19 -37 26 -62 26 -20 0 -36 4 -36 9 0 5 4 7 8 4 4 -2 14 -1 22 4 11 7 11
13 -3 34 -9 14 -26 30 -38 37 -35 18 -111 21 -141 4z"/>
<path d="M1493 1508 c-25 -12 -29 -23 -13 -33 6 -3 10 -11 10 -17 0 -7 -9 -2
-20 10 -12 12 -27 22 -35 22 -22 0 -45 -11 -45 -22 0 -6 -11 -21 -25 -34 -29
-26 -31 -42 -11 -70 13 -17 29 -19 156 -22 152 -4 190 6 190 48 0 23 -36 50
-70 51 -17 1 -19 3 -7 6 19 5 19 5 11 28 -15 37 -94 56 -141 33z"/>
</g>
</svg>
